<svg width="67" height="82" viewBox="0 0 67 82" fill="none" xmlns="http://www.w3.org/2000/svg">
<path d="M58.4288 32.9121C58.6785 30.5153 56.1352 28.7368 53.922 29.6901C50.9098 30.9874 47.5843 32.2514 44.0929 33.4815C42.2947 34.1151 40.3889 32.9013 40.0319 31.0285C37.9852 20.2898 32.79 11.8086 27.4412 11.1243C21.118 10.3016 16.8815 20.4351 17.9571 33.7359C18.0732 35.2848 18.2602 36.8338 18.5182 38.3397C18.7891 39.9206 17.8806 41.4905 16.3329 41.912C15.736 42.0745 15.1394 42.2393 14.5432 42.4139L13.6573 42.6664C8.59963 44.0607 3.92017 45.2358 0 46.4387C2.30702 46.1372 4.97128 45.7738 7.86725 45.2897C9.22748 45.0623 10.5785 45.7677 11.1458 47.0247L12.974 51.0755C13.7097 52.7057 12.8647 54.6134 11.1631 55.1639L8.46839 56.0358C7.11001 56.4753 5.63167 55.8958 4.91971 54.6582C3.3292 51.8937 1.66784 49.1227 0 46.4387C4.52663 57.4936 9.35849 65.8302 11.4563 77.6759C11.8234 79.7486 14.0913 80.9659 16.0204 80.1238C26.3069 75.6335 36.4489 74.1881 46.0943 71.5489C49.6348 70.4084 53.174 69.268 56.7792 68.1914C54.1932 68.5546 51.5762 68.9186 48.9731 69.3058C47.2945 69.5555 45.7322 68.379 45.5245 66.6947L44.9746 62.2356C44.7846 60.6949 45.8013 59.2637 47.3187 58.936L51.2107 58.0954C52.895 57.7316 54.5337 58.8595 54.8692 60.5497C55.3782 63.1139 56.015 65.6688 56.7792 68.1914C56.116 58.1663 57.432 42.4798 58.4288 32.9121ZM41.2519 53.6535C41.6622 55.1984 40.7892 56.7937 39.2668 57.2808L34.611 58.7708C32.8658 59.3293 31.0321 58.2066 30.736 56.3984L30.4309 54.5347C30.1729 52.9596 31.1935 51.4583 32.753 51.1187L37.349 50.1178C38.9164 49.7764 40.4751 50.7285 40.8869 52.279L41.2519 53.6535ZM32.9055 48.1905C31.16 48.7504 29.3248 47.6277 29.0286 45.8186L28.7185 43.9248C28.4628 42.363 29.4644 40.8714 31.0074 40.5194C32.1861 40.2505 33.3658 39.9817 34.5355 39.713C36.1147 39.3503 37.7009 40.3001 38.1198 41.8654L38.5279 43.3905C38.9415 44.936 38.0696 46.534 36.5462 47.0227L32.9055 48.1905ZM28.5774 57.6216C29.0684 59.1953 28.1976 60.8703 26.6274 61.3725L23.4911 62.3755C21.8807 62.8906 20.163 61.9737 19.6946 60.3491L18.8442 57.3989C18.3639 55.7329 19.3918 54.0079 21.0855 53.6372L24.2488 52.945C25.7687 52.6125 27.2906 53.497 27.7539 54.9822L28.5774 57.6216ZM26.7452 18.3443C30.9915 18.3443 35.2888 24.2907 37.75 32.7271C38.1851 34.2187 37.3126 35.752 35.8304 36.2182C32.2024 37.3594 27.5943 38.7561 27.4449 38.8014C27.4389 38.8032 27.4382 38.8034 27.4322 38.8052C25.8236 39.2816 24.2365 39.7366 22.6583 40.1827C20.8651 40.6895 19.0447 39.4477 18.981 37.5854C18.6059 26.6315 21.7724 18.3443 26.7452 18.3443ZM21.0551 42.7282C22.5626 42.4057 24.0685 43.2784 24.5381 44.7468L25.3914 47.4151C25.8954 48.9914 25.0278 50.6782 23.4523 51.1848L20.5716 52.1112C18.9653 52.6278 17.2492 51.7186 16.7744 50.0995L15.9062 47.1393C15.4109 45.4501 16.4695 43.6989 18.1922 43.3366C19.1397 43.1373 20.0939 42.9338 21.0551 42.7282ZM8.07555 60.4971C7.13943 58.7053 8.13918 56.4891 10.1162 56.0668L12.3625 55.587C13.7453 55.2916 15.1467 56.002 15.7259 57.292L17.3367 60.8792C18.071 62.5146 17.2166 64.4247 15.508 64.9673L13.504 65.6038C12.0447 66.0673 10.4748 65.3554 9.81527 63.9736C9.25417 62.798 8.67226 61.6392 8.07555 60.4971ZM17.6806 75.7546C16.1084 76.1868 14.4723 75.3083 13.9192 73.7744C13.4745 72.541 13.0021 71.329 12.5116 70.1319C11.7899 68.3705 12.8137 66.3663 14.6762 65.9727L16.7899 65.5259C18.1718 65.2339 19.5702 65.9452 20.1479 67.234L21.8266 70.9793C22.6035 72.7125 21.5944 74.7237 19.7556 75.1999C19.064 75.3791 18.373 75.5643 17.6806 75.7546ZM26.5003 73.4991C24.9115 73.8776 23.2924 72.9523 22.8485 71.3806L21.799 67.6648C21.3276 65.9957 22.3657 64.2758 24.0621 63.9151L27.4938 63.1854C29.006 62.8638 30.515 63.7442 30.9793 65.2188L32.1287 68.8698C32.6644 70.5711 31.6054 72.3583 29.8621 72.7359C28.7415 72.9787 27.6208 73.2321 26.5003 73.4991ZM44.7663 66.6027C45.2383 68.3288 44.1035 70.0793 42.3382 70.3723C40.387 70.6962 38.4253 71.0425 36.46 71.4252C34.7813 71.7521 33.147 70.6462 32.8626 68.9598L32.2167 65.1307C31.9498 63.5484 32.9754 62.0362 34.5442 61.6988L40.1564 60.4918C41.7134 60.157 43.2608 61.0972 43.6809 62.6335L44.7663 66.6027ZM44.134 55.7785C44.1333 55.7785 44.1328 55.778 44.1327 55.7774L43.5968 51.5937C43.3995 50.0535 44.4101 48.6173 45.9265 48.283L49.7751 47.4342C51.6084 47.03 53.3564 48.4016 53.4861 50.2745C53.583 51.6747 52.733 52.9833 51.3981 53.4173L44.1344 55.7785C44.1343 55.7785 44.1342 55.7785 44.134 55.7785ZM53.4903 39.5234C53.402 40.7664 52.5809 41.8424 51.3947 42.2244L46.1861 43.9019C44.3971 44.4781 42.5249 43.2862 42.29 41.4214L42.1877 40.6099C41.9985 39.1077 42.9585 37.7007 44.4252 37.3248C46.1799 36.875 47.8713 36.4356 49.4747 36.0066C51.5911 35.4403 53.6558 37.2316 53.4979 39.4168C53.4954 39.4523 53.4928 39.4878 53.4903 39.5234Z" fill="white"/>
<path d="M56.9636 10.8865C57.9239 11.3259 59.0402 11.2354 59.9545 10.7069C61.4039 9.86907 63.4436 8.87623 63.6063 9.81507C63.7787 10.6079 63.5976 12.0337 63.3945 13.1776C63.2025 14.259 63.5376 15.3821 64.3491 16.1224L66.5497 18.1298C66.5841 18.1611 66.6178 18.1932 66.6495 18.2273C66.7104 18.2928 66.8123 18.4092 66.8544 18.496C67.047 18.8151 67.2382 19.3896 66.0909 19.7088C65.3453 19.888 64.3207 20.0253 63.4416 20.1206C62.3305 20.2411 61.3487 20.9246 60.8987 21.9476L60.0371 23.9066C59.9953 24.0016 59.9594 24.0986 59.9191 24.1942C59.7528 24.5883 59.2167 25.5715 58.3813 24.3684C57.8258 23.6031 57.1567 22.4399 56.6628 21.5396C56.2096 20.7135 55.4142 20.1239 54.486 19.9615L51.9663 19.5206C51.9535 19.5184 51.9413 19.5164 51.9285 19.5139C51.731 19.4765 50.0521 19.11 51.3734 17.6662C51.8688 17.1248 52.3642 16.6232 52.7978 16.201C53.6223 15.3981 53.987 14.2154 53.6878 13.1041L53.119 10.9916C53.1026 10.9307 53.088 10.8693 53.0766 10.8073C53.0575 10.7028 53.0297 10.537 53.0297 10.4534C53.093 10.0066 53.3489 9.2406 54.5596 9.81507C55.3608 10.1593 56.2392 10.555 56.9636 10.8865ZM46.0218 0.112881C46.2909 0.463434 46.56 1.11017 46.781 1.74029C47.1424 2.77021 47.9513 3.60279 49.0075 3.87786L50.412 4.24364C50.4586 4.25577 50.4682 4.2563 50.5133 4.2731C50.646 4.32249 50.8041 4.42046 50.8942 4.52969C51.0331 4.69799 51.0948 4.97041 50.6717 5.34696C50.4196 5.58019 50.0847 5.83117 49.741 6.06747C48.7835 6.72563 48.1743 7.81019 48.2532 8.96937L48.3069 9.75807C48.3124 9.83859 48.3219 9.91861 48.326 9.99922C48.3415 10.303 48.2973 11.0446 47.4237 10.581C46.9526 10.3311 46.3607 9.96033 45.8423 9.62118C45.0633 9.11159 44.099 8.95533 43.21 9.23104L41.9749 9.61405C41.9544 9.62041 41.9343 9.62693 41.9137 9.63282C41.7164 9.68918 40.6401 9.94359 40.988 8.66613C41.0637 8.38826 41.1419 8.12039 41.2187 7.86944C41.5515 6.78168 41.3344 5.58065 40.5698 4.73842L39.9627 4.06974C39.9245 4.02766 39.9138 4.01854 39.8818 3.97156C39.7949 3.84404 39.6739 3.67903 39.6508 3.52648C39.6065 3.23413 39.727 2.90776 40.4776 2.85758C40.8898 2.83695 41.3417 2.81632 41.7647 2.79785C42.7891 2.75311 43.7081 2.18281 44.3123 1.35442C44.9202 0.52095 45.6724 -0.307276 46.0218 0.112881ZM28.0517 5.59359C29.1136 5.28807 29.8565 4.39218 30.2801 3.37162C30.4708 2.91219 30.6963 2.57936 30.9218 2.72992C31.0799 2.83568 31.2672 3.03392 31.4555 3.2655C32.1392 4.10601 33.1204 4.69052 34.2034 4.6612L34.8083 4.64483C34.9349 4.64483 35.0692 4.65191 35.1716 4.72649C35.2918 4.81408 35.3494 4.97046 35.126 5.28313C35.0618 5.38432 34.9883 5.49215 34.9095 5.60258C34.2673 6.50328 34.0332 7.65243 34.4246 8.68713L34.4518 8.75903C34.4766 8.82474 34.5046 8.88928 34.5268 8.95592C34.5981 9.16965 34.6918 9.64586 34.0434 9.49592C33.8084 9.45977 33.5276 9.39289 33.2459 9.31559C32.3329 9.06513 31.3469 9.16319 30.555 9.68199L30.1892 9.92161C30.1677 9.93569 30.1467 9.94994 30.1248 9.96332C29.972 10.0565 29.3273 10.3962 29.3273 9.49592C29.3273 9.47508 29.3274 9.4543 29.3274 9.43357C29.3303 8.29727 28.7749 7.2145 27.7979 6.63427L27.7215 6.58892C27.6888 6.56947 27.6854 6.56709 27.6519 6.54895C27.5505 6.49399 27.4422 6.38704 27.3943 6.28211C27.3099 6.09723 27.3084 5.86274 27.7989 5.66611C27.8819 5.64239 27.9665 5.61811 28.0517 5.59359Z" fill="white"/>
<path d="M8.07555 60.4971C7.13943 58.7053 8.13918 56.4891 10.1162 56.0668L12.3625 55.587C13.7453 55.2916 15.1467 56.002 15.7259 57.292L17.3367 60.8792C18.071 62.5146 17.2166 64.4247 15.508 64.9673L13.504 65.6038C12.0447 66.0673 10.4748 65.3554 9.81527 63.9736C9.25417 62.798 8.67226 61.6392 8.07555 60.4971Z" fill="white"/>
<path d="M21.0551 42.7282C22.5626 42.4057 24.0685 43.2784 24.5381 44.7468L25.3914 47.4151C25.8954 48.9914 25.0278 50.6782 23.4523 51.1848L20.5716 52.1112C18.9653 52.6278 17.2492 51.7186 16.7744 50.0995L15.9062 47.1393C15.4109 45.4501 16.4695 43.6989 18.1922 43.3366C19.1397 43.1373 20.0939 42.9338 21.0551 42.7282Z" fill="white"/>
<path d="M28.5774 57.6216C29.0684 59.1953 28.1976 60.8703 26.6274 61.3725L23.4911 62.3755C21.8807 62.8906 20.163 61.9737 19.6946 60.3491L18.8442 57.3989C18.3639 55.7329 19.3918 54.0079 21.0855 53.6372L24.2488 52.945C25.7687 52.6125 27.2906 53.497 27.7539 54.9822L28.5774 57.6216Z" fill="white"/>
<path d="M17.6806 75.7546C16.1084 76.1868 14.4723 75.3083 13.9192 73.7744C13.4745 72.541 13.0021 71.329 12.5116 70.1319C11.7899 68.3705 12.8137 66.3663 14.6762 65.9727L16.7899 65.5259C18.1718 65.2339 19.5702 65.9452 20.1479 67.234L21.8266 70.9793C22.6035 72.7125 21.5944 74.7237 19.7556 75.1999C19.064 75.3791 18.373 75.5643 17.6806 75.7546Z" fill="white"/>
<path d="M26.5003 73.4991C24.9115 73.8776 23.2924 72.9523 22.8485 71.3806L21.799 67.6648C21.3276 65.9957 22.3657 64.2758 24.0621 63.9151L27.4938 63.1854C29.006 62.8638 30.515 63.7442 30.9793 65.2188L32.1287 68.8698C32.6644 70.5711 31.6054 72.3583 29.8621 72.7359C28.7415 72.9787 27.6208 73.2321 26.5003 73.4991Z" fill="white"/>
<path d="M44.7663 66.6027C45.2383 68.3288 44.1035 70.0793 42.3382 70.3723C40.387 70.6962 38.4253 71.0425 36.46 71.4252C34.7813 71.7521 33.147 70.6462 32.8626 68.9598L32.2167 65.1307C31.9498 63.5484 32.9754 62.0362 34.5442 61.6988L40.1564 60.4918C41.7134 60.157 43.2608 61.0972 43.6809 62.6335L44.7663 66.6027Z" fill="white"/>
<path d="M44.134 55.7785C44.1333 55.7785 44.1328 55.778 44.1327 55.7774L43.5968 51.5937C43.3995 50.0535 44.4101 48.6173 45.9265 48.283L49.7751 47.4342C51.6084 47.03 53.3564 48.4016 53.4861 50.2745C53.583 51.6747 52.733 52.9833 51.3981 53.4173L44.1344 55.7785C44.1343 55.7785 44.1342 55.7785 44.134 55.7785Z" fill="white"/>
<path d="M41.2519 53.6535C41.6622 55.1984 40.7892 56.7937 39.2668 57.2808L34.611 58.7708C32.8658 59.3293 31.0321 58.2066 30.736 56.3984L30.4309 54.5347C30.1729 52.9596 31.1935 51.4583 32.753 51.1187L37.349 50.1178C38.9164 49.7764 40.4751 50.7285 40.8869 52.279L41.2519 53.6535Z" fill="white"/>
<path d="M32.9055 48.1905C31.16 48.7504 29.3248 47.6277 29.0286 45.8186L28.7185 43.9248C28.4628 42.363 29.4644 40.8714 31.0074 40.5194C32.1861 40.2505 33.3658 39.9817 34.5355 39.713C36.1147 39.3503 37.7009 40.3001 38.1198 41.8654L38.5279 43.3905C38.9415 44.936 38.0696 46.534 36.5462 47.0227L32.9055 48.1905Z" fill="white"/>
<path d="M53.4903 39.5234C53.402 40.7664 52.5809 41.8424 51.3947 42.2244L46.1861 43.9019C44.3971 44.4781 42.5249 43.2862 42.29 41.4214L42.1877 40.6099C41.9985 39.1077 42.9585 37.7007 44.4252 37.3248C46.1799 36.875 47.8713 36.4356 49.4747 36.0066C51.5911 35.4403 53.6558 37.2316 53.4979 39.4168C53.4954 39.4523 53.4928 39.4878 53.4903 39.5234Z" fill="white"/>
<path d="M26.7452 18.3443C30.9915 18.3443 35.2888 24.2907 37.75 32.7271C38.1851 34.2187 37.3126 35.752 35.8304 36.2182C32.2024 37.3594 27.5943 38.7561 27.4449 38.8014C27.4389 38.8032 27.4382 38.8034 27.4322 38.8052C25.8236 39.2816 24.2365 39.7366 22.6583 40.1827C20.8651 40.6895 19.0447 39.4477 18.981 37.5854C18.6059 26.6315 21.7724 18.3443 26.7452 18.3443Z" fill="white"/>
<path d="M11.1458 47.0247C10.5785 45.7677 9.22748 45.0623 7.86725 45.2897C4.97128 45.7738 2.30702 46.1372 0 46.4387C1.66784 49.1227 3.3292 51.8937 4.91971 54.6582C5.63167 55.8958 7.11001 56.4753 8.46839 56.0358L11.1631 55.1639C12.8647 54.6134 13.7097 52.7057 12.974 51.0755L11.1458 47.0247Z" fill="white"/>
<path d="M45.5245 66.6947C45.7322 68.379 47.2945 69.5555 48.9731 69.3058C51.5762 68.9186 54.1932 68.5546 56.7792 68.1914C56.015 65.6688 55.3782 63.1139 54.8692 60.5497C54.5337 58.8595 52.895 57.7316 51.2107 58.0954L47.3187 58.936C45.8013 59.2637 44.7846 60.6949 44.9746 62.2356L45.5245 66.6947Z" fill="white"/>
<path d="M57.3076 28.6746C52.6907 31.0742 46.6701 33.3583 40.2413 35.5245C38.896 24.0486 33.5772 14.4465 28.083 13.7437C22.2378 12.9832 18.3215 22.3506 19.3159 34.6459C19.4913 36.9878 19.8423 39.3296 20.3687 41.4971C18.9649 41.9062 17.5612 42.2576 16.16 42.668L15.3411 42.9014C10.6657 44.1903 6.34002 45.3613 2.71619 46.4732C5.40546 46.1218 8.61986 45.5947 12.1267 44.9522L15.9845 53.5L8.38589 55.9586C6.58436 52.7558 4.7135 49.5933 2.77468 46.4732C7.45004 57.8913 12.4192 66.0878 13.8801 79.2616C24.6346 73.6994 35.2722 72.3515 45.3261 69.6005C48.599 68.5463 51.8718 67.4934 55.2045 66.4982C51.8718 66.9663 48.482 67.4344 45.1506 67.9615L43.9808 58.4761L52.9234 56.5447C53.4498 59.8817 54.2102 63.2188 55.2032 66.4969C54.4441 55.0224 56.49 35.5245 57.3076 28.6746ZM41.5268 55.6072L31.6483 58.7685L30.4213 51.2749L39.8318 49.2254L41.5268 55.6072ZM30.0704 48.9907L28.8434 41.4971C31.6483 40.852 34.5131 40.2082 37.2595 39.5643L39.0143 46.1218L30.0704 48.9907ZM29.9534 59.3546L21.7127 61.9902L19.3159 53.6757L27.6151 51.8597L29.9534 59.3546ZM27.4396 20.4178C31.7653 20.4178 36.1482 27.0933 38.2539 36.1683C35.0382 37.2225 28.083 39.3296 28.083 39.3296C25.5107 40.0914 22.9982 40.7943 20.4844 41.4971C19.3146 29.7865 22.3561 20.4178 27.4396 20.4178ZM24.6346 42.4333L27.0315 49.9283L19.0234 52.5035L16.5681 44.1313C19.1989 43.6042 21.8869 43.0194 24.6346 42.4333ZM8.38589 56.0753L16.3354 54.3772L20.0165 62.575L12.8286 64.8578C11.4833 61.8132 9.96385 58.8865 8.38589 56.0753ZM16.4511 74.2265C15.4581 71.0652 14.2311 68.0782 12.9443 65.1516L20.4259 63.5702L24.2837 72.1771C21.6542 72.7619 19.0819 73.4647 16.4511 74.2265ZM24.5761 72.0604L22.0623 63.1598L30.5968 61.3451L33.3433 70.0686C30.4213 70.6548 27.4981 71.2986 24.5761 72.0604ZM44.9166 68.0205C41.1758 68.6053 37.3765 69.2491 33.5772 70.0686L32.0565 61.0527L42.4028 58.8275L44.9166 68.0205ZM43.5129 55.0224L42.6953 48.6393L51.9888 46.5899C52.0494 48.4476 52.1664 50.3029 52.3398 52.1534L43.5142 55.0224H43.5129ZM52.0473 41.9062L42.2274 45.0689L41.4085 38.5691C45.5587 37.5149 49.4165 36.5197 52.6322 35.5835C52.3398 37.5149 52.1643 39.622 52.0473 41.9062Z" fill="#78B829"/>
<path d="M56.8012 15.6513C56.8012 15.6513 61.279 12.6421 61.5143 13.9992C61.8093 15.3563 60.984 18.7196 60.984 18.7196L64.2828 21.7289C64.2828 21.7289 64.4596 21.9059 64.5168 22.0239C64.6949 22.3189 64.8716 22.85 63.811 23.145C62.3383 23.499 59.6881 23.676 59.6881 23.676L58.1569 27.1573C58.1569 27.1573 57.6266 28.8095 56.6842 27.4524C55.7419 26.1543 54.446 23.617 54.446 23.617L50.7364 22.968C50.7364 22.968 48.9102 22.673 50.2061 21.2568C51.502 19.8407 52.7978 18.7196 52.7978 18.7196L51.797 15.0023C51.797 15.0023 51.7372 14.7073 51.7372 14.5893C51.7957 14.1762 52.0323 13.4682 53.1514 13.9992C54.7995 14.7073 56.8012 15.6513 56.8012 15.6513ZM45.259 5.03043C45.8478 5.7975 46.4367 8.0987 46.4367 8.0987L49.382 8.86576C49.382 8.86576 49.5575 8.92477 49.616 8.98377C49.794 9.10178 50.0878 9.39681 49.5575 9.86885C48.7919 10.5769 47.2022 11.462 47.2022 11.462L47.379 14.0582C47.379 14.0582 47.5558 15.2383 46.5549 14.7073C45.5541 14.1762 43.9631 13.0551 43.9631 13.0551L41.4896 13.8222C41.4896 13.8222 40.2522 14.2352 40.6058 12.9371C40.9593 11.639 41.3727 10.5769 41.3727 10.5769L39.6049 8.62974C39.6049 8.62974 39.4879 8.45273 39.4282 8.39372C39.3112 8.0987 39.2514 7.62666 40.1339 7.56765C41.3129 7.50865 42.844 7.44964 42.844 7.44964C42.844 7.44964 44.6702 4.32237 45.259 5.03043ZM30.2399 9.63283C30.2399 9.63283 30.7702 7.09561 31.3005 7.44964C31.8296 7.80367 32.7134 9.2788 32.7134 9.2788L34.8932 9.21979H35.0699C35.2467 9.2788 35.482 9.39681 35.1869 9.80985C34.7749 10.4589 33.9508 11.403 33.9508 11.403L34.5981 13.1141C34.5981 13.1141 34.9517 13.8812 34.1861 13.7042C33.4192 13.5862 32.1246 13.1141 32.1246 13.1141L30.5934 14.1172C30.5934 14.1172 29.8266 14.6483 29.8266 13.7042C29.8266 12.7601 29.8864 11.934 29.8864 11.934L28.2967 10.9899C28.2967 10.9899 28.1797 10.9309 28.1199 10.8719C28.003 10.6949 27.8249 10.3999 28.4137 10.1639C29.2391 9.92786 30.2399 9.63283 30.2399 9.63283Z" fill="#F18A00"/>
</svg>
