<svg width="410" height="44" viewBox="0 0 410 44" fill="none" xmlns="http://www.w3.org/2000/svg">
<path d="M25.1614 26.886C25.1614 17.4046 21.1997 10.2378 12.6085 10.2378C4.01735 10.2378 0.0556228 17.4046 0.0556228 26.886C0.0556228 36.3674 4.01735 43.5342 12.6085 43.5342C21.1997 43.5342 25.1614 36.3674 25.1614 26.886ZM17.5941 26.886C17.5941 33.1179 15.9025 36.9016 12.6085 36.9016C9.3145 36.9016 7.62297 33.1179 7.62297 26.886C7.62297 20.6541 9.3145 16.8704 12.6085 16.8704C15.9025 16.8704 17.5941 20.6541 17.5941 26.886ZM47.6492 17.093V10.772H27.7961V17.093H33.939V43H41.5063V17.093H47.6492ZM75.4471 43L71.9305 10.772H54.214L52.7895 24.5268C52.1663 30.7142 50.8309 35.2101 46.8692 37.3022L48.9613 43.8903C56.4842 41.353 59.2886 33.7411 60.0898 25.328L60.8911 16.9149H65.1644L67.7017 43H75.4471ZM104.677 43V10.772H98.4002L88.8742 26.975C87.8059 28.7556 86.9601 30.8477 86.9601 30.8477H86.8711C86.8711 30.8477 86.9156 28.533 86.9156 26.3963V10.772H80.2831V43H86.2924L96.0855 26.2628C97.1983 24.3932 98.0441 22.3901 98.0441 22.3901H98.1331C98.1331 22.3901 98.0441 24.6158 98.0441 26.7079V43H104.677ZM133.075 43V10.772H125.508V25.417C124.795 25.7732 123.371 26.0847 122.258 26.0847C119.765 26.0847 118.074 24.8384 118.074 22.2566V10.772H110.507V22.9688C110.507 28.8446 114.424 32.6728 120.478 32.6728C122.214 32.6728 124.172 32.2722 125.508 31.6935V43H133.075ZM162.1 43V10.772H154.533V23.681H146.654V10.772H139.087V43H146.654V29.8684H154.533V43H162.1ZM201.304 43V10.772H193.737V43H201.304ZM190.71 32.9399C190.71 26.975 186.526 22.5236 178.113 22.5236C177.178 22.5236 176.02 22.6572 175.442 22.7907V10.772H168.097V41.7981C170.679 42.911 173.928 43.5342 177.801 43.5342C186.17 43.5342 190.71 39.3499 190.71 32.9399ZM183.276 32.9844C183.276 36.3229 181.451 37.8809 177.89 37.8809C176.955 37.8809 176.02 37.7029 175.442 37.5248V28.444C175.931 28.3104 176.911 28.1769 177.757 28.1769C181.451 28.1769 183.276 29.9129 183.276 32.9844ZM231.717 43V10.772H225.44L215.914 26.975C214.846 28.7556 214 30.8477 214 30.8477H213.911C213.911 30.8477 213.956 28.533 213.956 26.3963V10.772H207.323V43H213.332L223.125 26.2628C224.238 24.3932 225.084 22.3901 225.084 22.3901H225.173C225.173 22.3901 225.084 24.6158 225.084 26.7079V43H231.717ZM226.553 1.29056L222.547 0.622849C222.369 2.93757 221.478 4.22847 219.564 4.22847C217.65 4.22847 216.76 2.93757 216.582 0.622849L212.576 1.29056C212.798 5.6084 215.068 8.41277 219.564 8.41277C224.06 8.41277 226.33 5.6084 226.553 1.29056ZM272.237 34.1418C272.237 29.8684 269.21 27.1531 266.718 26.2628V26.1738C269.3 25.3725 271.525 22.6572 271.525 19.2296C271.525 14.0215 267.742 10.2378 259.106 10.2378C255.233 10.2378 251.494 10.9501 248.912 11.9739V41.7981C251.227 42.7774 255.189 43.5342 259.106 43.5342C267.875 43.5342 272.237 40.0176 272.237 34.1418ZM264.358 20.0309C264.358 21.4108 263.869 22.5236 263.112 23.1468C262.444 23.7255 261.332 24.0816 259.64 24.0816H256.079V16.2472C256.747 16.0246 257.948 15.8466 259.061 15.8466C262.89 15.8466 264.358 17.4491 264.358 20.0309ZM264.759 33.6076C264.759 36.59 263.023 37.9254 259.106 37.9254C258.038 37.9254 256.791 37.7474 256.079 37.5248V29.3788H259.685C261.465 29.3788 262.444 29.7349 263.29 30.3136C264.225 30.9813 264.759 32.1831 264.759 33.6076ZM310.391 43V10.772H302.824V43H310.391ZM299.797 32.9399C299.797 26.975 295.612 22.5236 287.199 22.5236C286.264 22.5236 285.107 22.6572 284.528 22.7907V10.772H277.184V41.7981C279.765 42.911 283.015 43.5342 286.888 43.5342C295.256 43.5342 299.797 39.3499 299.797 32.9399ZM292.363 32.9844C292.363 36.3229 290.538 37.8809 286.977 37.8809C286.042 37.8809 285.107 37.7029 284.528 37.5248V28.444C285.018 28.3104 285.997 28.1769 286.843 28.1769C290.538 28.1769 292.363 29.9129 292.363 32.9844ZM339.334 33.474C339.334 27.3311 335.106 23.2359 327.004 23.2359C325.669 23.2359 324.333 23.3694 323.576 23.5475V17.093H335.862V10.772H316.41V41.7981C318.769 42.7774 322.642 43.5342 326.559 43.5342C335.284 43.5342 339.334 39.5279 339.334 33.474ZM331.812 33.296C331.812 36.2339 329.897 37.8809 326.425 37.8809C325.312 37.8809 324.244 37.7029 323.576 37.5248V29.0227C324.244 28.8891 325.223 28.7556 326.203 28.7556C329.942 28.7556 331.812 30.4916 331.812 33.296ZM368.505 26.886C368.505 17.4046 364.544 10.2378 355.953 10.2378C347.361 10.2378 343.4 17.4046 343.4 26.886C343.4 36.3674 347.361 43.5342 355.953 43.5342C364.544 43.5342 368.505 36.3674 368.505 26.886ZM360.938 26.886C360.938 33.1179 359.247 36.9016 355.953 36.9016C352.659 36.9016 350.967 33.1179 350.967 26.886C350.967 20.6541 352.659 16.8704 355.953 16.8704C359.247 16.8704 360.938 20.6541 360.938 26.886ZM396.307 20.7876C396.307 14.3776 391.766 10.2378 383.398 10.2378C379.525 10.2378 376.187 10.861 373.605 11.9739V43H381.039V30.9813C381.617 31.0703 382.686 31.1593 383.576 31.1593C392.078 31.1593 396.307 26.7525 396.307 20.7876ZM388.873 20.7876C388.873 23.8145 387.003 25.5061 383.22 25.5061C382.374 25.5061 381.528 25.417 381.039 25.328V16.2472C381.617 16.0691 382.552 15.8911 383.487 15.8911C387.048 15.8911 388.873 17.4491 388.873 20.7876ZM409.332 10.772H400.696L401.854 31.2929H408.219L409.332 10.772ZM409.51 38.9492C409.51 36.4565 407.507 34.4979 405.014 34.4979C402.521 34.4979 400.518 36.4565 400.518 38.9492C400.518 41.442 402.521 43.4451 405.014 43.4451C407.507 43.4451 409.51 41.442 409.51 38.9492Z" fill="#F17D00"/>
</svg>
