<svg width="116" height="31" viewBox="0 0 116 31" fill="none" xmlns="http://www.w3.org/2000/svg">
<path d="M11.5837 1.9093C11.5837 1.62094 11.8175 1.38717 12.1059 1.38717H17.2247C17.5131 1.38717 17.7468 1.62094 17.7468 1.9093V3.44002C17.7468 3.5785 17.6918 3.7113 17.5939 3.80922C17.496 3.90712 17.3632 3.96213 17.2248 3.96215L11.5837 1.9093ZM11.5837 1.9093V4.51885C11.5837 4.70115 11.6788 4.87025 11.8346 4.96497C11.9903 5.05967 12.1842 5.0663 12.346 4.98248M11.5837 1.9093L12.346 4.98248M12.346 4.98248C12.346 4.98246 12.3461 4.98244 12.3461 4.98242L12.3473 4.98182L12.3549 4.97794L12.3886 4.96109C12.4191 4.94603 12.4652 4.92365 12.525 4.89577C12.6446 4.83995 12.8183 4.76237 13.0306 4.67735C13.4578 4.50624 14.029 4.30998 14.6242 4.1966C15.2329 4.08066 15.8827 4.0215 16.3862 3.99169C16.6366 3.97687 16.8479 3.96948 16.996 3.96579C17.07 3.96395 17.1281 3.96304 17.1673 3.96259L17.2114 3.9622L17.222 3.96215L17.2244 3.96215L17.2247 3.96215L12.0834 3.94948C12.0162 3.98085 11.9631 4.00659 11.9262 4.02482L11.8831 4.04635L11.8711 4.05247L11.8675 4.0543L11.8664 4.05489L11.8659 4.05511L11.8658 4.0552C11.8657 4.05524 11.8656 4.05527 12.1059 4.51885C12.3461 4.98242 12.3461 4.98245 12.346 4.98248ZM33.3755 7.12833C33.15 7.12833 32.95 7.27311 32.8795 7.48734L26.6888 26.3117C26.6365 26.4708 26.6636 26.6453 26.7618 26.7809C26.86 26.9166 27.0173 26.9969 27.1848 26.9969H32.407C32.6383 26.9969 32.842 26.8447 32.9076 26.623L33.7647 23.7265H38.8995L39.7573 26.6231C39.823 26.8448 40.0267 26.9969 40.258 26.9969H45.4801C45.6476 26.9969 45.8049 26.9166 45.9031 26.7809C46.0013 26.6453 46.0284 26.4708 45.9761 26.3117L39.7854 7.48734C39.7149 7.27311 39.5149 7.12833 39.2894 7.12833H33.3755ZM61.0766 25.4682C61.2606 25.3323 61.3348 25.0925 61.2596 24.8765L59.5993 20.1093C59.5384 19.9345 59.3896 19.805 59.208 19.7689C59.0265 19.7328 58.8394 19.7955 58.7163 19.9337C57.8668 20.8874 56.579 21.8124 54.9906 21.8124C53.7407 21.8124 52.7733 21.3213 52.1098 20.5291C51.4383 19.7274 51.0517 18.5836 51.0517 17.2543C51.0517 15.8194 51.465 14.5932 52.1551 13.7369C52.8383 12.8891 53.8065 12.383 54.9906 12.383C56.6244 12.383 57.8394 13.3848 58.7001 14.45C58.8184 14.5964 59.0064 14.6678 59.192 14.6369C59.3777 14.606 59.5324 14.4775 59.5968 14.3006L61.2571 9.74315C61.3361 9.52612 61.2632 9.28294 61.0778 9.14524C60.2968 8.56535 59.028 7.93625 57.7763 7.45456C56.5367 6.9775 55.2147 6.60626 54.3336 6.60626C49.3175 6.60626 44.9927 10.5189 44.9927 17.08C44.9927 20.1964 45.9516 22.8166 47.6265 24.6638C49.3047 26.5147 51.6702 27.5537 54.403 27.5537C55.2164 27.5537 56.4717 27.3308 57.7046 26.9721C58.9349 26.6141 60.2243 26.0975 61.0766 25.4682ZM97.7058 7.65045C97.7058 7.36209 97.472 7.12833 97.1837 7.12833H83.9038C83.6155 7.12833 83.3817 7.36209 83.3817 7.65045V18.0547C83.3817 18.3864 83.387 18.6878 83.392 18.9752C83.3977 19.3015 83.403 19.6098 83.4001 19.9242C83.3947 20.4928 83.3593 20.9398 83.2641 21.266C83.1722 21.5808 83.0495 21.7049 82.9148 21.761C82.7503 21.8295 82.4268 21.8576 81.8133 21.6626C81.5789 21.5882 81.3244 21.6873 81.2022 21.9006L78.989 25.7625C78.9158 25.8903 78.8999 26.043 78.9453 26.1831C78.9907 26.3231 79.0931 26.4375 79.2273 26.4981C80.2977 26.981 81.6849 27.2406 82.4857 27.2406C84.0898 27.2406 85.3473 26.9027 86.3242 26.3198C87.3029 25.7359 87.9661 24.9262 88.4119 24.0387C89.2909 22.2888 89.3366 20.2061 89.3366 18.8544V12.6961H91.7856V26.4748C91.7856 26.7632 92.0194 26.9969 92.3077 26.9969H97.1837C97.472 26.9969 97.7058 26.7632 97.7058 26.4748V7.65045ZM107.303 22.2056L107.295 22.2058L105.751 22.2316V19.3179H107.303C108.035 19.3179 108.501 19.4314 108.779 19.6322C109.018 19.8051 109.203 20.1072 109.203 20.7444C109.203 21.3826 109.017 21.6969 108.773 21.8785C108.495 22.0855 108.029 22.2057 107.303 22.2056ZM100.317 7.13912C100.106 7.13912 99.9153 7.2663 99.8345 7.46137C99.8039 7.53519 99.7913 7.61324 99.7955 7.68984V26.4856C99.7955 26.774 100.029 27.0077 100.318 27.0077H107.754C109 27.0077 110.825 26.8792 112.352 26.0286C113.125 25.598 113.825 24.9804 114.329 24.1039C114.833 23.2284 115.124 22.1239 115.124 20.7444C115.124 19.3659 114.835 18.2619 114.335 17.3865C113.834 16.5099 113.137 15.8919 112.366 15.4609C110.843 14.6097 109.017 14.4812 107.754 14.4812H105.716V7.66125C105.716 7.37289 105.482 7.13912 105.194 7.13912H100.317ZM22.2038 14.8857C21.1877 16.1979 19.6128 17.4288 17.7468 18.3504V10.9216C17.7468 10.7783 17.6879 10.6412 17.5838 10.5426C17.4797 10.444 17.3396 10.3925 17.1964 10.4003L17.2247 10.9216C17.1964 10.4003 17.1963 10.4003 17.1962 10.4003L17.1959 10.4003L17.1953 10.4003L17.1937 10.4004L17.1891 10.4007L17.1743 10.4017C17.162 10.4025 17.1448 10.4038 17.1231 10.4056C17.0796 10.4092 17.0176 10.415 16.9389 10.4241C16.7816 10.4423 16.5572 10.4734 16.28 10.526C15.7261 10.6309 14.9582 10.8219 14.0919 11.1668C13.2294 11.5102 12.65 11.841 12.2781 12.0953C12.0922 12.2224 11.9585 12.3303 11.8674 12.4107C11.8218 12.4509 11.787 12.4842 11.7617 12.5096C11.749 12.5223 11.7387 12.533 11.7307 12.5416L11.7203 12.5529L11.7164 12.5573L11.7147 12.5592L11.7139 12.5601L11.7135 12.5605C11.7134 12.5607 11.7132 12.5609 12.1059 12.905L11.7132 12.5609C11.6297 12.6561 11.5837 12.7784 11.5837 12.905V19.9982C11.423 20.0024 11.2624 20.0025 11.1034 20.0025C9.87548 20.0025 8.8147 19.8016 8.01561 19.465C7.20956 19.1255 6.72751 18.6748 6.53929 18.2099C6.26412 17.5017 6.5322 16.3849 7.5399 15.0669C8.78407 13.4529 10.9114 11.938 13.3341 10.9899C15.1494 10.2799 16.9872 9.91228 18.6421 9.91228C19.87 9.91228 20.9307 10.1132 21.7298 10.4499C22.5359 10.7895 23.018 11.2404 23.2062 11.7057C23.4812 12.4129 23.2134 13.5294 22.2038 14.8857ZM28.7085 9.58308L28.7082 9.58239C27.3233 6.04298 23.5097 3.99672 18.6421 3.99672C16.2207 3.99672 13.632 4.49788 11.1882 5.4596L11.1879 5.45972C7.7642 6.80954 4.77468 8.9132 2.83737 11.4382L2.83736 11.4382C0.647379 14.2928 -0.0480931 17.5439 1.03532 20.3641L1.03531 20.3641L1.03651 20.3672C2.42218 23.9073 6.23657 25.9528 11.1026 25.9528H11.1183C11.2684 25.9528 11.4255 25.9528 11.5837 25.9494V29.9542C11.5837 30.2426 11.8175 30.4763 12.1059 30.4763H17.2247C17.5131 30.4763 17.7468 30.2426 17.7468 29.9542V24.759C18.0071 24.6716 18.2993 24.5732 18.5698 24.451C21.9884 23.101 24.9731 20.9986 26.9073 18.4767C29.097 15.6235 29.7948 12.371 28.7085 9.58308ZM35.0356 18.5759L36.3195 14.0656L37.626 18.5759H35.0356ZM70.7266 12.174C71.7063 12.174 72.6428 12.5658 73.3401 13.3546C74.0387 14.1449 74.5275 15.3701 74.5275 17.08C74.5275 18.7898 74.0385 20.015 73.3398 20.8053C72.6425 21.5941 71.7059 21.9859 70.7266 21.9859C69.7472 21.9859 68.8106 21.5941 68.1132 20.8054C67.4146 20.0152 66.9257 18.7902 66.9257 17.0807C66.9257 15.3705 67.4146 14.1451 68.1133 13.3547C68.8107 12.5658 69.7472 12.174 70.7266 12.174ZM70.7273 6.60626C67.3968 6.60626 64.9122 7.89671 63.2695 9.87893C61.6378 11.8478 60.8667 14.4612 60.8667 17.08C60.8667 19.682 61.6381 22.2949 63.269 24.2675C64.9109 26.2536 67.3951 27.5537 70.7266 27.5537C74.0567 27.5537 76.5412 26.2632 78.1838 24.281C79.8153 22.3121 80.5864 19.6988 80.5864 17.08C80.5864 14.4612 79.8153 11.8478 78.1839 9.87895C76.5414 7.89674 74.0571 6.60626 70.7273 6.60626Z" fill="#F18A00" stroke="white" stroke-width="1.04425" stroke-linejoin="round"/>
</svg>
